<svg xmlns="http://www.w3.org/2000/svg" viewBox="0 0 200 80" role="img" aria-label="Google Pay">
  <rect width="200" height="80" fill="white" rx="6"/>
  <!-- Google G multi-color logo -->
  <path d="M68 40c0-9.4-7.6-17-17-17-9.4 0-17 7.6-17 17s7.6 17 17 17c5.8 0 10.9-2.9 14-7.4H51v-7h22.8c.15 1 .2 2 .2 3.4" fill="#4285F4"/>
  <path d="M34 40c0 2.1.4 4.1 1 5.9l6.7-5.2a9.1 9.1 0 0 1 0-1.4l-6.7-5.2A17 17 0 0 0 34 40" fill="#FBBC05"/>
  <path d="M51 56.5a16.4 16.4 0 0 1-9.8-3.4l-6.2 4.8A23.7 23.7 0 0 0 51 63c7 0 12.9-2.6 17.2-6.8l-6.3-4.9c-2.4 1.4-5.4 5.2-10.9 5.2" fill="#34A853"/>
  <path d="M68.2 43.4l-6.3-4.9c.7-1.1 1.1-2.5 1.1-3.9 0-1.1-.3-2.4-.8-3.4l6.2-4.8c1.8 2.3 2.6 5.3 2.6 8.2 0 3.3-.9 6.2-2.8 8.8" fill="#EA4335"/>
  <!-- Pay text -->
  <text x="84" y="50" font-family="'Product Sans', 'Google Sans', Arial, sans-serif" font-weight="700" font-size="22" fill="#1c1c1e">Pay</text>
</svg>
