<svg xmlns="http://www.w3.org/2000/svg" viewBox="0 0 780 500" role="img" aria-label="Visa">
  <rect width="780" height="500" fill="white"/>
  <path fill="#1A1F71" d="M291.2 331.7L316.2 167.6H355.5L330.5 331.7H291.2ZM491.1 170.7C483.2 167.6 470.7 164.3 455.3 164.3C416.5 164.3 389.2 184.3 389 212.7C388.8 233.8 408.5 245.5 423.4 252.5C438.7 259.7 443.9 264.3 443.8 270.7C443.7 280.5 432.2 284.9 421.5 284.9C406.6 284.9 398.8 282.8 386.6 277.4L381.5 275L376 308.2C385.3 312.3 402.6 315.8 420.6 316C461.9 316 488.7 296.2 489 265.8C489.2 249.3 479.2 236.7 457.3 226.3C443.5 219.4 434.9 214.8 435 207.9C435 201.8 442.2 195.3 458.1 195.3C471.5 195.1 481.3 198.1 489.1 201.3L492.9 203L498.2 170.7H491.1ZM581.2 167.6H550.8C541.3 167.6 534.2 170.4 530 180.3L474.6 331.7H515.8L523.8 309.3L574.1 309.3L578.4 331.7H614.9L581.2 167.6ZM534.7 282.1C535 281.3 549.9 239 549.9 239C549.7 239.4 551.2 235.6 552.2 233.3L558.8 282.1H534.7ZM236.9 167.6L198.5 275.3L194.4 255.5C187.1 231.6 165.2 205.7 140.8 192.8L176.1 331.6H217.6L279.2 167.6H236.9Z"/>
  <path fill="#F7A600" d="M163.5 167.6H99.8L99.2 170.8C149.1 183.6 182.4 212.4 194.4 255.5L182.2 181.1C180.2 171.3 173.1 168 163.5 167.6Z"/>
</svg>
